<svg id="icons" xmlns="http://www.w3.org/2000/svg" viewBox="0 0 64 64"><defs><style>.cls-1{fill:none;stroke:#000;stroke-linecap:round;stroke-linejoin:round;stroke-width:2px;}</style></defs><g id="cone"><path class="cls-1" d="M4,60l2.66-8.28a6.94,6.94,0,0,1,2.19-3.23h0a7,7,0,0,1,4.36-1.55H50.79a7,7,0,0,1,4.36,1.55h0a6.94,6.94,0,0,1,2.19,3.23L60,60Z"/><path class="cls-1" d="M50.79,46.94,39.08,6A2.7,2.7,0,0,0,36.5,4H28A2.7,2.7,0,0,0,25.4,6l-12.19,41"/><line class="cls-1" x1="22.74" y1="14.89" x2="41.63" y2="14.89"/><line class="cls-1" x1="20.31" y1="23.07" x2="43.96" y2="23.07"/><line class="cls-1" x1="17.88" y1="31.24" x2="46.3" y2="31.24"/><line class="cls-1" x1="15.45" y1="39.42" x2="48.64" y2="39.42"/></g></svg>