<svg id="icons" xmlns="http://www.w3.org/2000/svg" viewBox="0 0 64 64"><defs><style>.cls-1{fill:none;stroke:#000;stroke-linecap:round;stroke-linejoin:round;stroke-width:2px;}</style></defs><g id="cup"><path class="cls-1" d="M18.6,4S15.93,48.43,32,48.43,45.42,4,45.42,4Z"/><path class="cls-1" d="M21.48,37.2C5.42,33.11,4.67,4,4.67,4h6.54v.86a7.23,7.23,0,0,0,7.23,7.23h0"/><path class="cls-1" d="M42.52,37.2C58.58,33.11,59.33,4,59.33,4H52.79v.86a7.23,7.23,0,0,1-7.23,7.23h0"/><path class="cls-1" d="M34.78,48v6.95h.32A5.08,5.08,0,0,1,40.18,60H23.9A5.09,5.09,0,0,1,29,54.91h.32V48"/><line class="cls-1" x1="18.44" y1="9.43" x2="45.58" y2="9.43"/></g></svg>