<svg id="icons" xmlns="http://www.w3.org/2000/svg" viewBox="0 0 64 64"><defs><style>.cls-1{fill:none;stroke:#000;stroke-linecap:round;stroke-linejoin:round;stroke-width:2px;}</style></defs><g id="helmet_2" data-name="helmet 2"><path class="cls-1" d="M60,54H11.87L4,40.2S3,23.21,14.36,16.05V10H36.05S60,13.29,60,54Z"/><path class="cls-1" d="M21.51,14.14c5.49,0,16.75,1.1,22.9,8.57"/><path class="cls-1" d="M55.2,27.35S42.15,31.58,33,32a3.33,3.33,0,0,0-2.81,1.74h0A3.19,3.19,0,0,0,30,36.16l2.26,7.3a3.27,3.27,0,0,0,1.47,1.84l.29.17a3.41,3.41,0,0,0,2.48.39L59,40.72"/><line class="cls-1" x1="59.91" y1="49.83" x2="29.81" y2="49.83"/><path class="cls-1" d="M23.54,20.49C17.81,23.62,8.1,31.31,8.1,47.37"/></g></svg>