<svg id="icons" xmlns="http://www.w3.org/2000/svg" viewBox="0 0 64 64"><defs><style>.cls-1{fill:none;stroke:#000;stroke-linecap:round;stroke-linejoin:round;stroke-width:2px;}</style></defs><g id="medal"><path class="cls-1" d="M14,5.5a3.75,3.75,0,0,0-.89,3.93,6.3,6.3,0,0,0,1.38,2.37L32,31.43,49.55,11.8a6.3,6.3,0,0,0,1.38-2.37A3.75,3.75,0,0,0,50,5.5,5.4,5.4,0,0,0,46.17,4H17.84A5.4,5.4,0,0,0,14,5.5Z"/><path class="cls-1" d="M50,5.5s8.63,5.16,5,10.23L32,37.23,8.93,15.73C5.34,10.66,14,5.5,14,5.5"/><line class="cls-1" x1="32.01" y1="31.43" x2="32.01" y2="41.1"/><circle class="cls-1" cx="32" cy="50.55" r="9.45"/><line class="cls-1" x1="28.79" y1="46.05" x2="35.22" y2="46.05"/><line class="cls-1" x1="28.79" y1="54.88" x2="35.22" y2="54.88"/><line class="cls-1" x1="32" y1="46.05" x2="32" y2="54.88"/><line class="cls-1" x1="14.46" y1="11.8" x2="49.55" y2="11.8"/></g></svg>