<svg id="icons" xmlns="http://www.w3.org/2000/svg" viewBox="0 0 64 64"><defs><style>.cls-1{fill:none;stroke:#000;stroke-linecap:round;stroke-linejoin:round;stroke-width:2px;}</style></defs><g id="motorbike"><path class="cls-1" d="M43.13,43.34A22.8,22.8,0,0,1,28.52,25.85l-9.47-1.14L16.6,19.2"/><path class="cls-1" d="M39.14,24.34h4.43l3.54-4.55H58.92v3.62L53,26.91S44.79,28,44.79,36v.34"/><path class="cls-1" d="M43.41,44.33a58.55,58.55,0,0,1-20.29,1.4L21,40.34l-1.44-3.62L18,32.91H5.08a26.91,26.91,0,0,1,2.71-8.45"/><path class="cls-1" d="M16.6,19.2a9.92,9.92,0,0,1,2.25-1.34L17.75,14a23.9,23.9,0,0,0-10,10.46l4.48.64a12.81,12.81,0,0,1,4.33-5.9"/><path class="cls-1" d="M12.27,25.1h0a3.06,3.06,0,0,1-1.12,3.79l-6.06,4"/><ellipse class="cls-1" cx="51.47" cy="41.55" rx="8.53" ry="8.45"/><ellipse class="cls-1" cx="51.47" cy="41.55" rx="3.31" ry="3.28"/><path class="cls-1" d="M19.52,36.72a8.38,8.38,0,0,0-2.46-2.32,8.43,8.43,0,1,0,4,7.15,7,7,0,0,0-.1-1.21"/><ellipse class="cls-1" cx="12.53" cy="41.55" rx="3.31" ry="3.28"/><path class="cls-1" d="M19.05,24.72l7.66-3.26a10.36,10.36,0,0,1,10,1l1.85,1.29a3.1,3.1,0,0,1,1.32,2.54h0a3.1,3.1,0,0,1-2.2,3l-7.36,2.27"/><line class="cls-1" x1="12.53" y1="41.55" x2="18" y2="32.9"/><line class="cls-1" x1="51.47" y1="41.55" x2="42.94" y2="41.55"/></g></svg>