<svg id="icons" xmlns="http://www.w3.org/2000/svg" viewBox="0 0 64 64"><defs><style>.cls-1{fill:none;stroke:#000;stroke-linecap:round;stroke-linejoin:round;stroke-width:2px;}</style></defs><g id="race_rack" data-name="race rack"><path class="cls-1" d="M52.88,14.23H28.54a4.06,4.06,0,0,0-1.65.34l-.82.35a4.22,4.22,0,0,0-2.41,2.87h0A4.16,4.16,0,0,1,19.6,21H15.54a6.77,6.77,0,0,0-3.12.75h0a6.91,6.91,0,0,0-3.3,3.66L4.21,38.3a3.2,3.2,0,0,0,.34,2.94l2.05,3a3.22,3.22,0,0,0,2.67,1.42h9.24a3.25,3.25,0,0,0,2.3-1l1.58-1.61a3.19,3.19,0,0,0,.84-1.55l1.46-6.47a.75.75,0,0,1,.72-.58h7.87a.74.74,0,0,1,.53,1.26l-5.45,5.57a3.25,3.25,0,0,0-.91,2.25v2.25a3.24,3.24,0,0,0,.94,2.28l.68.68a3.26,3.26,0,0,0,2.28.94H51.57a8.44,8.44,0,0,0,4.55-1.33h0A8.43,8.43,0,0,0,60,41.34v-.88a3.23,3.23,0,0,0-1.53-2.74l-1.1-.67a3.24,3.24,0,0,0-1.68-.48h-8.2A.35.35,0,0,1,47.2,36L57.55,21.6a4.24,4.24,0,0,0,.78-2.44h0a4.16,4.16,0,0,0-2-3.57L55,14.82A4.16,4.16,0,0,0,52.88,14.23Z"/><path class="cls-1" d="M31.85,45.37V44.1L37,38.88a5.15,5.15,0,0,0-3.68-8.74H25.41a5.13,5.13,0,0,0-5,4L19,40.29l-1,1H9.9l-1.35-2L13.24,27a2.5,2.5,0,0,1,1.18-1.32,2.57,2.57,0,0,1,1.12-.27H19.6a8.54,8.54,0,0,0,8.32-6.49l.71-.31,24.19,0,1,.6L43.62,33.45A4.76,4.76,0,0,0,47.49,41h7.86l.24.15v.21a4,4,0,0,1-4,4Z"/></g></svg>