<svg id="icons" xmlns="http://www.w3.org/2000/svg" viewBox="0 0 64 64"><defs><style>.cls-1{fill:none;stroke:#000;stroke-linecap:round;stroke-linejoin:round;stroke-width:2px;}</style></defs><g id="race_car_2" data-name="race car 2"><circle class="cls-1" cx="47.83" cy="35.91" r="2.12"/><circle class="cls-1" cx="47.83" cy="35.91" r="5.37"/><circle class="cls-1" cx="14.71" cy="35.91" r="2.12"/><circle class="cls-1" cx="14.71" cy="35.91" r="5.37"/><path class="cls-1" d="M10,38.4H7.82a3.76,3.76,0,0,1-2.59-1h0A3.72,3.72,0,0,1,4.12,35.1L4,34.25A3.72,3.72,0,0,1,5.7,30.69a48.38,48.38,0,0,1,11.45-5.21,61.49,61.49,0,0,1,19.36-2.75,72.45,72.45,0,0,1,9.21.71L60,26.56V33.8L52.76,38"/><polyline class="cls-1" points="43.09 38.4 43.08 38.4 19.45 38.4"/><polyline class="cls-1" points="17.15 25.47 22.18 28.5 41.55 28.5 45.72 23.44"/><line class="cls-1" x1="36.51" y1="22.73" x2="36.51" y2="28.5"/><line class="cls-1" x1="31.43" y1="32.22" x2="36.05" y2="32.22"/></g></svg>