<svg id="icons" xmlns="http://www.w3.org/2000/svg" viewBox="0 0 64 64"><defs><style>.cls-1{fill:none;stroke:#000;stroke-linecap:round;stroke-linejoin:round;stroke-width:2px;}</style></defs><g id="racer"><path class="cls-1" d="M30.89,13.15c0,3.09-2.5,6.12-5.59,6.12s-5.6-3-5.6-6.12,2.51-7,5.6-7S30.89,10.06,30.89,13.15Z"/><path class="cls-1" d="M21.64,17.68l-1.45.75a7.46,7.46,0,0,1-3.46.84h0a7.63,7.63,0,0,1-7.12-4.95l-1-2.72a2.35,2.35,0,0,0-3-1.39h0a2.38,2.38,0,0,0-1.42,3.13L7.29,21a3.74,3.74,0,0,0,3,2.28l3.95.55a3.77,3.77,0,0,1,2.43,1.4h0a3.72,3.72,0,0,1,.8,2.31v8a3.23,3.23,0,0,0,.67,2h0a3.2,3.2,0,0,0,2.54,1.25h9.81A3.21,3.21,0,0,0,33,37.45h0a3.23,3.23,0,0,0,.67-2v-9l3.05,3a2,2,0,0,0,2.56.26L46.56,25a2,2,0,0,0,.48-3h0a2,2,0,0,0-2.78-.39l-4.42,3.16a2,2,0,0,1-2.61-.21l-2.95-2.92A16.79,16.79,0,0,0,28.6,18"/><path class="cls-1" d="M33,37.45,36.36,55a3.29,3.29,0,0,1-1.52,3.45h0A3.32,3.32,0,0,1,30,56.68l-4.45-12.2-4.47,12.2a3.32,3.32,0,0,1-4.86,1.74h0A3.29,3.29,0,0,1,14.68,55l3.41-17.51"/><path class="cls-1" d="M16.41,46.06a15,15,0,0,1,6.65,5.17"/><path class="cls-1" d="M28,51.23s2.37-4.27,6.65-5.17"/><line class="cls-1" x1="25.3" y1="19.27" x2="25.3" y2="38.7"/><line class="cls-1" x1="17.42" y1="34.05" x2="33.65" y2="34.05"/><path class="cls-1" d="M44.26,21.68,46.73,5.85l1.42-.47a5.48,5.48,0,0,1,4.46.44l.7.4a5.43,5.43,0,0,0,4,.57L60,6.14,59.24,14l-1.72.93a5.5,5.5,0,0,1-5.8-.37h0a5.5,5.5,0,0,0-4.4-.89l-1.88.43"/></g></svg>