<svg id="icons" xmlns="http://www.w3.org/2000/svg" viewBox="0 0 64 64"><defs><style>.cls-1{fill:none;stroke:#000;stroke-linecap:round;stroke-linejoin:round;stroke-width:2px;}</style></defs><g id="race_car_3" data-name="race car 3"><circle class="cls-1" cx="52.81" cy="36.54" r="2.17"/><circle class="cls-1" cx="52.81" cy="36.54" r="5.29"/><circle class="cls-1" cx="17.04" cy="38.39" r="3.24"/><path class="cls-1" d="M55.24,27.42l-4.93.12V27a3.78,3.78,0,0,1,2.15-3.42l2.08-1A3.8,3.8,0,0,1,60,26v1.44H55.24v3.83l-8.93-1.89V25.18h-3.5v1.47A4.1,4.1,0,0,1,42,29.18a4.16,4.16,0,0,1-2.2,1.52,4.26,4.26,0,0,1-1.18.17,4.18,4.18,0,0,1-2.34-.71,6.05,6.05,0,0,0-4.55-.92L8,33.92a2.58,2.58,0,0,0-.72.26l-2,1.09a2.45,2.45,0,0,0,1.19,4.6h7.71"/><line class="cls-1" x1="48.71" y1="39.87" x2="19.91" y2="39.87"/><path class="cls-1" d="M24.46,39.87V37.53a2.47,2.47,0,0,1,.69-1.7h0a2.47,2.47,0,0,1,1.62-.72l14.85-.72a2.52,2.52,0,0,1,.86.12l.34.1a2.44,2.44,0,0,1,1.69,2.32v2.94"/></g></svg>