<svg id="icons" xmlns="http://www.w3.org/2000/svg" viewBox="0 0 64 64"><defs><style>.cls-1{fill:none;stroke:#000;stroke-linecap:round;stroke-linejoin:round;stroke-width:2px;}</style></defs><g id="race_car_1" data-name="race car 1"><circle class="cls-1" cx="45.89" cy="37.66" r="1.89"/><circle class="cls-1" cx="45.89" cy="37.66" r="5.22"/><circle class="cls-1" cx="16.92" cy="37.66" r="1.89"/><circle class="cls-1" cx="16.92" cy="37.66" r="5.22"/><path class="cls-1" d="M11.71,37.67H7.94L4,33.5s4.83-6.61,19.9-6.61c0,0,10.07-10.74,23.57-2.91a28.14,28.14,0,0,1,4.14,2.91H60L55.17,37.67H51.11"/><polyline class="cls-1" points="40.67 37.66 25.12 37.66 22.14 37.66"/><polyline class="cls-1" points="47.48 23.97 44.55 26.89 23.91 26.89 25.12 37.66"/><path class="cls-1" d="M13.4,28.19h0a5.14,5.14,0,0,1-4.11,4.3L4,33.5"/><line class="cls-1" x1="35.69" y1="30.85" x2="40.13" y2="30.85"/></g></svg>