<svg id="icons" xmlns="http://www.w3.org/2000/svg" viewBox="0 0 64 64"><defs><style>.cls-1{fill:none;stroke:#000;stroke-linecap:round;stroke-linejoin:round;stroke-width:2px;}</style></defs><g id="racing_flag" data-name="racing flag"><path class="cls-1" d="M19.24,4h0A2.53,2.53,0,0,0,16.49,6L4.09,56.2a3.07,3.07,0,0,0,2.19,3.71h0A3,3,0,0,0,10,57.63L21.41,7.15A2.57,2.57,0,0,0,19.24,4Z"/><path class="cls-1" d="M15.25,34.28l4.44-1.86a17.61,17.61,0,0,1,16.08,1.25l.7.43A17.58,17.58,0,0,0,50,36.21l2.84-.71L60,6.55,57.18,8A17.64,17.64,0,0,1,40,7.67h0A17.64,17.64,0,0,0,26.73,5.79L21.41,7.15"/><line class="cls-1" x1="24.17" y1="31.2" x2="30.6" y2="5.24"/><line class="cls-1" x1="32.55" y1="32.12" x2="38.78" y2="7.02"/><line class="cls-1" x1="40.28" y1="35.87" x2="46.71" y2="9.95"/><line class="cls-1" x1="46.9" y1="36.73" x2="53.23" y2="9.56"/><path class="cls-1" d="M58.31,13.35l-2.67,1.42a17.65,17.65,0,0,1-17.18-.37h0a17.59,17.59,0,0,0-13.28-1.88l-5.3,1.35"/><path class="cls-1" d="M56.7,19.85l-1.88,1a17.6,17.6,0,0,1-17.18-.37h0A18,18,0,0,0,23.9,18.71L18.47,20.1"/><path class="cls-1" d="M55.05,26.51l-2.19,1.15a17.58,17.58,0,0,1-17.17-.37h0a17.68,17.68,0,0,0-13.28-1.88L17,26.8"/></g></svg>