<svg id="icons" xmlns="http://www.w3.org/2000/svg" viewBox="0 0 64 64"><defs><style>.cls-1{fill:none;stroke:#000;stroke-linecap:round;stroke-linejoin:round;stroke-width:2px;}</style></defs><g id="racing_jacket" data-name="racing jacket"><path class="cls-1" d="M17.83,11.34V27l-2.71,2.53a146.79,146.79,0,0,1-2.43,25.79H6.33c-2-9.91-1.12-24.11,1.5-34.67S23,10.8,23,10.8v-5h0a26.91,26.91,0,0,1,17.8-.56l.26.08V10.8s12.53-.75,15.14,9.81,3.55,24.76,1.5,34.67H51.31a146.79,146.79,0,0,1-2.43-25.79L46.17,27V11.34"/><rect class="cls-1" x="6.9" y="55.28" width="4.7" height="4.72"/><rect class="cls-1" x="52.4" y="55.28" width="4.7" height="4.72"/><path class="cls-1" d="M23,10.8l3.62,2.12a10.74,10.74,0,0,0,10.82,0L41,10.8"/><path class="cls-1" d="M14.92,36.47l1.73,10a8.12,8.12,0,0,0,8,6.72H39a8.12,8.12,0,0,0,7.93-6.42l2.19-10.32"/><line class="cls-1" x1="32" y1="22.09" x2="32" y2="58.87"/><path class="cls-1" d="M19.71,51.53v3.8a3.55,3.55,0,0,0,3.54,3.54h18a3.55,3.55,0,0,0,3.55-3.54V50.75"/><path class="cls-1" d="M23,5.81h0A12.77,12.77,0,0,0,40.8,5.57L41,5.33"/></g></svg>