<svg id="icons" xmlns="http://www.w3.org/2000/svg" viewBox="0 0 64 64"><defs><style>.cls-1{fill:none;stroke:#000;stroke-linecap:round;stroke-linejoin:round;stroke-width:2px;}</style></defs><g id="refueling"><path class="cls-1" d="M58,34.73l-9.61-9V21.28a5.38,5.38,0,0,0-1.59-3.8L39,9.76a4,4,0,0,0-3.29-1.13l-3.53.44a4,4,0,0,0-2.82,1.72L24.48,18a2.65,2.65,0,0,0-.1,2.84l1.77,3A2.69,2.69,0,0,0,28.9,25.1L35.18,24a2.66,2.66,0,0,1,2.35.75L53,40.35Z"/><path class="cls-1" d="M7.42,4.05l8.92.61A6.7,6.7,0,0,1,19.77,5.9l8.66,6.21L25.83,16l-7.16-5A6.69,6.69,0,0,0,15.44,9.8L7.22,9.08A1.33,1.33,0,0,1,6,7.76V5.38A1.33,1.33,0,0,1,7.42,4.05Z"/><path class="cls-1" d="M36.29,24.06c.75,4.76.59,8.23-2.56,11.88"/><path class="cls-1" d="M55.61,37.4l1.78,6.43a3.89,3.89,0,0,1-1,3.8l-3.11,3.13a3.88,3.88,0,0,0-1.06,3.52h0a3.91,3.91,0,0,1-3.08,4.59L43.65,60"/></g></svg>