<svg id="icons" xmlns="http://www.w3.org/2000/svg" viewBox="0 0 64 64"><defs><style>.cls-1{fill:none;stroke:#000;stroke-linecap:round;stroke-linejoin:round;stroke-width:2px;}</style></defs><g id="rewarding"><rect class="cls-1" x="4" y="34.63" width="18.67" height="25.37"/><rect class="cls-1" x="22.67" y="25.92" width="18.67" height="34.08"/><rect class="cls-1" x="41.33" y="41.5" width="18.67" height="18.5"/><path class="cls-1" d="M10,45.52V44.34a2.85,2.85,0,0,1,2.86-2.84h.7a2.85,2.85,0,0,1,2.86,2.84h0a2.84,2.84,0,0,1-.84,2L9.92,51.91h6.45"/><path class="cls-1" d="M48.49,48.55a2.66,2.66,0,0,1,2.66-2.65h.65a2.66,2.66,0,0,1,2.67,2.65h0a2.64,2.64,0,0,1-.78,1.87H51.48"/><path class="cls-1" d="M48.49,52.29a2.65,2.65,0,0,0,2.66,2.64h.65a2.65,2.65,0,0,0,2.67-2.64h0a2.63,2.63,0,0,0-.78-1.87"/><polyline class="cls-1" points="32.27 48.55 32.27 36.99 28.84 40.39"/><line class="cls-1" x1="28.85" y1="48.55" x2="35.69" y2="48.55"/><polyline class="cls-1" points="25.71 25.92 25.71 21.88 38.12 21.88 38.12 25.92"/><path class="cls-1" d="M32,21.88V16.52l-1.17-1.36a15.33,15.33,0,0,1-3.27-6.39L26.42,4H37.18L37,6.26a15.2,15.2,0,0,1-5,10.26h0"/><path class="cls-1" d="M26.74,5.35H23.06a2,2,0,0,0-2,2h0a1.93,1.93,0,0,0,.77,1.55L32,16.52"/><path class="cls-1" d="M37.09,5.35h3.85a2,2,0,0,1,2,2h0a1.93,1.93,0,0,1-.77,1.55L32,16.52"/></g></svg>