<svg id="icons" xmlns="http://www.w3.org/2000/svg" viewBox="0 0 64 64"><defs><style>.cls-1{fill:none;stroke:#000;stroke-linecap:round;stroke-linejoin:round;stroke-width:2px;}</style></defs><g id="speedometer"><circle class="cls-1" cx="32" cy="32" r="22.92"/><circle class="cls-1" cx="32" cy="32" r="28"/><line class="cls-1" x1="32" y1="13.41" x2="32" y2="17.92"/><line class="cls-1" x1="41.32" y1="15.93" x2="39.03" y2="19.83"/><line class="cls-1" x1="47.82" y1="22.37" x2="43.94" y2="24.69"/><line class="cls-1" x1="20.06" y1="38.99" x2="16.18" y2="41.31"/><line class="cls-1" x1="50.44" y1="31.84" x2="45.92" y2="31.84"/><line class="cls-1" x1="18.08" y1="31.84" x2="13.56" y2="31.84"/><line class="cls-1" x1="47.91" y1="41.16" x2="44.01" y2="38.87"/><line class="cls-1" x1="19.99" y1="24.81" x2="16.09" y2="22.53"/><line class="cls-1" x1="25.07" y1="19.77" x2="22.81" y2="15.86"/><line class="cls-1" x1="23.94" y1="46.46" x2="40.17" y2="46.46"/><line class="cls-1" x1="32.06" y1="46.46" x2="32.06" y2="41.59"/><path class="cls-1" d="M32,27.9a4.1,4.1,0,0,1,0,8.2"/><line class="cls-1" x1="32" y1="32" x2="17.47" y2="27.9"/></g></svg>