<svg id="icons" xmlns="http://www.w3.org/2000/svg" viewBox="0 0 64 64"><defs><style>.cls-1{fill:none;stroke:#000;stroke-linecap:round;stroke-linejoin:round;stroke-width:2px;}</style></defs><g id="steering_wheel" data-name="steering wheel"><circle class="cls-1" cx="32" cy="32" r="28"/><path class="cls-1" d="M36.2,26.5s0,0,0,0a57.29,57.29,0,0,1,9.25,3.91,6,6,0,0,0,5-9,21.29,21.29,0,0,0-36.9,0,6,6,0,0,0,5,8.94,60.23,60.23,0,0,1,9-3.77"/><path class="cls-1" d="M40.05,33.58a21.33,21.33,0,0,1,8.51,6.36,4.4,4.4,0,0,1,.11,5.37c-2.36,3.22-6.94,8.22-12.58,8.22V51.67a4.15,4.15,0,0,0-4.16-4.15h0a4.16,4.16,0,0,0-4.15,4.07l0,1.94a20.13,20.13,0,0,1-12.67-8.25,4.4,4.4,0,0,1,.23-5.18,21.1,21.1,0,0,1,8.52-6.46"/><circle class="cls-1" cx="31.94" cy="33.4" r="8.13"/><circle cx="31.94" cy="33.4" r="2.99"/></g></svg>