<svg id="icons" xmlns="http://www.w3.org/2000/svg" viewBox="0 0 64 64"><defs><style>.cls-1{fill:none;stroke:#000;stroke-linecap:round;stroke-linejoin:round;stroke-width:2px;}</style></defs><g id="stowatch"><circle class="cls-1" cx="31.99" cy="36.98" r="23.02"/><path class="cls-1" d="M24,15.41V6.68A2.68,2.68,0,0,1,26.64,4H36.73a2.68,2.68,0,0,1,2.68,2.68V15.2"/><circle cx="31.68" cy="20.27" r="2.65"/><circle cx="31.68" cy="53.33" r="2.65"/><circle cx="43.37" cy="25.11" r="2.65"/><circle cx="19.99" cy="48.49" r="2.65"/><circle cx="48.22" cy="36.8" r="2.65"/><circle cx="15.15" cy="36.8" r="2.65"/><circle cx="43.37" cy="48.49" r="2.65"/><circle cx="19.99" cy="25.11" r="2.65"/><line class="cls-1" x1="31.99" y1="36.98" x2="46.76" y2="30.73"/><path class="cls-1" d="M46.76,19.33l2.42-2.42a2.68,2.68,0,0,1,4,.23l3.15,4a2.68,2.68,0,0,1-.26,3.63L53,27.59"/><path class="cls-1" d="M17.23,19.32l-2.41-2.41a2.68,2.68,0,0,0-4,.23l-3.15,4a2.68,2.68,0,0,0,.26,3.63l3,2.84"/></g></svg>