<svg id="icons" xmlns="http://www.w3.org/2000/svg" viewBox="0 0 64 64"><defs><style>.cls-1{fill:none;stroke:#000;stroke-linecap:round;stroke-linejoin:round;stroke-width:2px;}</style></defs><g id="tools"><line class="cls-1" x1="44.64" y1="4.7" x2="59.3" y2="19.35"/><line class="cls-1" x1="42.15" y1="7.19" x2="56.81" y2="21.85"/><rect class="cls-1" x="36.24" y="11.1" width="12.6" height="20.73" transform="translate(-2.72 36.36) rotate(-45)"/><circle class="cls-1" cx="42.53" cy="21.46" r="2.94"/><circle class="cls-1" cx="16" cy="47.99" r="3.8"/><line class="cls-1" x1="36" y1="23.83" x2="32.35" y2="27.48"/><line class="cls-1" x1="40.17" y1="28" x2="36.52" y2="31.65"/><path class="cls-1" d="M32,36.2l-7.74,7.73s-3.36,2.67,1.16,7.19L17.21,59.3,14.3,56.39l-6.7-6.7-2.9-2.9,8.18-8.19c4.52,4.52,7.19,1.16,7.19,1.16L27.81,32"/><path class="cls-1" d="M7.6,49.69a5,5,0,0,0,6.71,6.71"/><path class="cls-1" d="M4.71,9.87A9.5,9.5,0,1,0,9.86,4.72h0l3.22,3.22a3.64,3.64,0,0,1-5.15,5.15L4.71,9.87Z"/><path class="cls-1" d="M54.13,59.29a9.5,9.5,0,1,1,5.15-5.15h0l-3.22-3.22a3.64,3.64,0,0,0-5.15,5.15l3.22,3.22Z"/><line class="cls-1" x1="42.03" y1="46.25" x2="17.74" y2="21.97"/><line class="cls-1" x1="46.71" y1="41.83" x2="22.17" y2="17.29"/></g></svg>