<svg id="icons" xmlns="http://www.w3.org/2000/svg" viewBox="0 0 64 64"><defs><style>.cls-1{fill:none;stroke:#000;stroke-linecap:round;stroke-linejoin:round;stroke-width:2px;}</style></defs><g id="traffic_light" data-name="traffic light"><path class="cls-1" d="M53.7,21.43a6.3,6.3,0,0,0,0-12.6H18.6a6.3,6.3,0,0,0,0,12.6Z"/><path class="cls-1" d="M53.7,38.3a6.3,6.3,0,0,0,0-12.6H18.6a6.3,6.3,0,0,0,0,12.6Z"/><path class="cls-1" d="M53.7,55.17a6.3,6.3,0,0,0,0-12.6H18.6a6.3,6.3,0,1,0,0,12.6Z"/><circle class="cls-1" cx="36.15" cy="15.13" r="3.35"/><circle class="cls-1" cx="36.15" cy="32" r="3.35"/><circle class="cls-1" cx="36.15" cy="48.87" r="3.35"/><circle class="cls-1" cx="19.93" cy="15.13" r="3.35"/><circle class="cls-1" cx="19.93" cy="32" r="3.35"/><circle class="cls-1" cx="19.93" cy="48.87" r="3.35"/><circle cx="52.37" cy="15.13" r="4.15"/><circle cx="52.37" cy="32" r="4.15"/><circle cx="52.37" cy="48.87" r="4.15"/><path class="cls-1" d="M12.3,15.13h-4A4.27,4.27,0,0,0,4,19.41V44.59a4.27,4.27,0,0,0,4.28,4.28h4"/></g></svg>