<svg id="icons" xmlns="http://www.w3.org/2000/svg" viewBox="0 0 64 64"><defs><style>.cls-1{fill:none;stroke:#000;stroke-linecap:round;stroke-linejoin:round;stroke-width:2px;}</style></defs><g id="transmission"><line class="cls-1" x1="12.11" y1="19.07" x2="12.11" y2="44.5"/><line class="cls-1" x1="30.33" y1="19.07" x2="30.33" y2="44.5"/><line class="cls-1" x1="48.56" y1="19.07" x2="48.56" y2="31.78"/><line class="cls-1" x1="12.11" y1="31.78" x2="48.56" y2="31.78"/><line class="cls-1" x1="48.56" y1="44.5" x2="48.56" y2="37.35"/><path d="M9.91,14.43V12.27h1.27V6.34H9.52V4.86l2.92-.68h2.21v8.09h1.11v2.16Z"/><path d="M34,9.63a2.43,2.43,0,0,1,.62.81,2.38,2.38,0,0,1,.24,1.08,2.74,2.74,0,0,1-1,2.27,4.83,4.83,0,0,1-3.06.82,8.38,8.38,0,0,1-1.92-.22,9.86,9.86,0,0,1-1.71-.53v-2.8a10.49,10.49,0,0,0,1.69.57,6.69,6.69,0,0,0,1.66.23,1.53,1.53,0,0,0,.81-.17.65.65,0,0,0,.26-.57c0-.51-.31-.76-.92-.76h-.95V8.2h.74c.58,0,.86-.25.86-.74s-.28-.71-.86-.71a3.31,3.31,0,0,0-1.32.3,6.19,6.19,0,0,0-1.33.77L27,5a9.56,9.56,0,0,1,1.83-.71A7.4,7.4,0,0,1,30.9,4a4.43,4.43,0,0,1,2.79.76,2.58,2.58,0,0,1,1,2.16,2.37,2.37,0,0,1-.4,1.43,2.68,2.68,0,0,1-1,.85A1.9,1.9,0,0,1,34,9.63Z"/><path d="M51.79,8.53a3.38,3.38,0,0,1,.78,2.35,3.75,3.75,0,0,1-.51,2,3.32,3.32,0,0,1-1.5,1.3,5.74,5.74,0,0,1-2.42.46,8.4,8.4,0,0,1-1.93-.22,9.86,9.86,0,0,1-1.71-.53v-2.8a7.5,7.5,0,0,0,3.11.8,1.66,1.66,0,0,0,1.08-.3,1.16,1.16,0,0,0,.35-.93,1.14,1.14,0,0,0-.21-.72.79.79,0,0,0-.67-.26.9.9,0,0,0-.57.17,1.22,1.22,0,0,0-.35.51H44.48L45,4.18h7V6.74H47.67l-.11,1.35a4.19,4.19,0,0,1,2-.43A2.84,2.84,0,0,1,51.79,8.53Z"/><path d="M9.49,58.87a5.58,5.58,0,0,1,.34-2,4.69,4.69,0,0,1,1.1-1.64,11.2,11.2,0,0,1,2.1-1.6,2.81,2.81,0,0,0,.56-.43.61.61,0,0,0,.17-.43q0-.54-.78-.54a3.51,3.51,0,0,0-1.33.31,5.55,5.55,0,0,0-1.35.76l-.78-2.8a10.81,10.81,0,0,1,1.93-.72,8.33,8.33,0,0,1,2.2-.3,4.38,4.38,0,0,1,2.82.81A3,3,0,0,1,17.12,54a3.62,3.62,0,0,1-.84,1c-.33.27-.76.58-1.28.93a8.15,8.15,0,0,0-1.3,1,1.28,1.28,0,0,0-.42,1h1.6v-.75h2.7V60H9.49Z"/><path d="M31.33,60V58.35H27.06V56.2l4.54-6.44h3.21v6.59h.91v2h-.91V60Zm-1.84-3.65h1.84V53.76Z"/><path d="M44.45,57.84h.66V51.92h-.66V49.76h6a4.1,4.1,0,0,1,2.59.7,2.68,2.68,0,0,1,.9,2.26,3.09,3.09,0,0,1-.36,1.53,1.83,1.83,0,0,1-1,.89v.13a1.39,1.39,0,0,1,1.27,1.56v1h.62V60H50.33V56.91a1.61,1.61,0,0,0-.15-.78.79.79,0,0,0-.47-.36,3.63,3.63,0,0,0-.92-.09v2.16h.87V60H44.45Zm5-3.76a.75.75,0,0,0,.58-.21.94.94,0,0,0,.19-.64v-.47a1,1,0,0,0-.19-.64.78.78,0,0,0-.58-.2h-.71v2.16Z"/></g></svg>