<svg xmlns="http://www.w3.org/2000/svg" viewBox="0 0 760 430">
  <defs><linearGradient id="g" x1="0" y1="0" x2="1" y2="1"><stop offset="0" stop-color="#182016"/><stop offset="1" stop-color="#030503"/></linearGradient></defs>
  <rect width="760" height="430" fill="url(#g)"/>
  <g stroke="#9cff4a" stroke-opacity=".15" stroke-width="1">
    <path d="M0 54h760M0 108h760M0 162h760M0 216h760M0 270h760M0 324h760M0 378h760"/>
    <path d="M76 0v430M152 0v430M228 0v430M304 0v430M380 0v430M456 0v430M532 0v430M608 0v430M684 0v430"/>
  </g>
  <path d="M80 285c78-85 147-104 230-78 76 24 122 2 184-52 72-63 140-54 184 22" fill="none" stroke="#f2f5ef" stroke-width="12" stroke-opacity=".45"/>
  <path d="M80 285c78-85 147-104 230-78 76 24 122 2 184-52 72-63 140-54 184 22" fill="none" stroke="#9cff4a" stroke-width="4"/>
  <text x="34" y="384" fill="#f2f5ef" font-family="Arial, sans-serif" font-size="30" font-weight="700" letter-spacing="3">CAR DOSSIER</text>
</svg>