<svg xmlns="http://www.w3.org/2000/svg" width="720" height="720" viewBox="0 0 720 720">
  <rect width="720" height="720" fill="none"/>
  <g stroke="#9cff4a" stroke-opacity=".12" stroke-width="1">
    <path d="M0 60h720M0 120h720M0 180h720M0 240h720M0 300h720M0 360h720M0 420h720M0 480h720M0 540h720M0 600h720M0 660h720"/>
    <path d="M60 0v720M120 0v720M180 0v720M240 0v720M300 0v720M360 0v720M420 0v720M480 0v720M540 0v720M600 0v720M660 0v720"/>
  </g>
  <g stroke="#ffffff" stroke-opacity=".035" stroke-width="1">
    <path d="M0 15h720M0 705h720M15 0v720M705 0v720"/>
  </g>
</svg>