<svg xmlns="http://www.w3.org/2000/svg" viewBox="0 0 320 190">
  <rect width="320" height="190" fill="#070b08"/>
  <g stroke="#9cff4a" stroke-opacity=".08" stroke-width="1">
    <path d="M0 32h320M0 64h320M0 96h320M0 128h320M0 160h320"/>
    <path d="M32 0v190M64 0v190M96 0v190M128 0v190M160 0v190M192 0v190M224 0v190M256 0v190M288 0v190"/>
  </g>
  <path d="M62 118c-24-22-12-55 26-58 31-2 45 18 72 13 31-6 47-40 80-28 31 12 24 58-8 69-31 10-55-13-86-5-30 8-45 36-84 9z"
    fill="none" stroke="#f2f5ef" stroke-width="6" stroke-linecap="round" stroke-linejoin="round"/>
  <path d="M62 118c-24-22-12-55 26-58 31-2 45 18 72 13 31-6 47-40 80-28 31 12 24 58-8 69-31 10-55-13-86-5-30 8-45 36-84 9z"
    fill="none" stroke="#9cff4a" stroke-width="2" stroke-linecap="round" stroke-linejoin="round"/>
</svg>