<svg xmlns="http://www.w3.org/2000/svg" viewBox="0 0 760 430">
  <defs><linearGradient id="g" x1="0" y1="0" x2="1" y2="1"><stop offset="0" stop-color="#172017"/><stop offset="1" stop-color="#030503"/></linearGradient></defs>
  <rect width="760" height="430" fill="url(#g)"/>
  <g stroke="#96ff2f" stroke-opacity=".08" stroke-width="1">
    <path d="M0 54h760M0 108h760M0 162h760M0 216h760M0 270h760M0 324h760M0 378h760"/>
    <path d="M76 0v430M152 0v430M228 0v430M304 0v430M380 0v430M456 0v430M532 0v430M608 0v430M684 0v430"/>
  </g>
  <path d="M70 282c82-86 154-102 236-74 68 23 122 3 185-49 72-60 135-56 177 14" fill="none" stroke="#d8ddd8" stroke-opacity=".62" stroke-width="11"/>
  <path d="M70 282c82-86 154-102 236-74 68 23 122 3 185-49 72-60 135-56 177 14" fill="none" stroke="#96ff2f" stroke-width="4"/>
  <text x="34" y="392" fill="#f2f4ef" font-family="Arial, sans-serif" font-size="28" font-weight="700" letter-spacing="3">COCHE</text>
</svg>