<svg xmlns="http://www.w3.org/2000/svg" viewBox="0 0 1600 900">
  <defs>
    <linearGradient id="a" x1="0" y1="0" x2="1" y2="1">
      <stop offset="0" stop-color="#141915"/>
      <stop offset=".55" stop-color="#0a0d0a"/>
      <stop offset="1" stop-color="#020402"/>
    </linearGradient>
    <radialGradient id="b" cx=".5" cy=".2" r=".55">
      <stop offset="0" stop-color="#ffffff" stop-opacity=".25"/>
      <stop offset=".25" stop-color="#ffffff" stop-opacity=".08"/>
      <stop offset="1" stop-color="#ffffff" stop-opacity="0"/>
    </radialGradient>
  </defs>
  <rect width="1600" height="900" fill="url(#a)"/>
  <rect width="1600" height="900" fill="url(#b)"/>
  <g stroke="#96ff2f" stroke-opacity=".08" stroke-width="2">
    <path d="M0 120h1600M0 240h1600M0 360h1600M0 480h1600M0 600h1600M0 720h1600"/>
    <path d="M160 0v900M320 0v900M480 0v900M640 0v900M800 0v900M960 0v900M1120 0v900M1280 0v900M1440 0v900"/>
  </g>
  <path d="M470 598c132-142 322-250 518-214 132 24 179 146 320 70 72-39 117-117 152-175" fill="none" stroke="#c4c9c3" stroke-opacity=".62" stroke-width="16"/>
  <path d="M470 598c132-142 322-250 518-214 132 24 179 146 320 70 72-39 117-117 152-175" fill="none" stroke="#ffffff" stroke-opacity=".34" stroke-width="34"/>
  <path d="M470 598c132-142 322-250 518-214 132 24 179 146 320 70 72-39 117-117 152-175" fill="none" stroke="#96ff2f" stroke-width="6"/>
  <path d="M875 690 1060 774 1196 674" fill="none" stroke="#d63c3c" stroke-width="26" stroke-linecap="round"/>
</svg>