<svg xmlns="http://www.w3.org/2000/svg" viewBox="0 0 1600 900">
  <defs>
    <linearGradient id="g" x1="0" y1="0" x2="1" y2="1">
      <stop offset="0" stop-color="#071006"/>
      <stop offset=".55" stop-color="#111a13"/>
      <stop offset="1" stop-color="#020402"/>
    </linearGradient>
    <radialGradient id="r" cx=".58" cy=".38" r=".55">
      <stop offset="0" stop-color="#9cff4a" stop-opacity=".22"/>
      <stop offset=".35" stop-color="#9cff4a" stop-opacity=".07"/>
      <stop offset="1" stop-color="#9cff4a" stop-opacity="0"/>
    </radialGradient>
  </defs>
  <rect width="1600" height="900" fill="url(#g)"/>
  <rect width="1600" height="900" fill="url(#r)"/>
  <g stroke="#9cff4a" stroke-opacity=".08" stroke-width="2">
    <path d="M0 120h1600M0 240h1600M0 360h1600M0 480h1600M0 600h1600M0 720h1600"/>
    <path d="M160 0v900M320 0v900M480 0v900M640 0v900M800 0v900M960 0v900M1120 0v900M1280 0v900M1440 0v900"/>
  </g>
  <path d="M290 570c-132-120-42-303 160-314 164-9 251 100 391 65 161-40 218-201 389-122 152 70 125 313-54 372-164 54-290-66-456-23-158 41-229 156-430 22z"
    fill="none" stroke="#ffffff" stroke-width="22" stroke-linecap="round" stroke-linejoin="round" opacity=".62"/>
  <path d="M290 570c-132-120-42-303 160-314 164-9 251 100 391 65 161-40 218-201 389-122 152 70 125 313-54 372-164 54-290-66-456-23-158 41-229 156-430 22z"
    fill="none" stroke="#9cff4a" stroke-width="8" stroke-linecap="round" stroke-linejoin="round"/>
  <text x="86" y="800" fill="#f2f5ef" font-family="Arial, sans-serif" font-size="42" font-weight="700" letter-spacing="8">GRASSCUTTERS RACE CONTROL</text>
</svg>