<svg xmlns="http://www.w3.org/2000/svg" viewBox="0 0 320 190">
  <rect width="320" height="190" fill="#070b08"/>
  <path d="M62 118c-24-22-12-55 26-58 31-2 45 18 72 13 31-6 47-40 80-28 31 12 24 58-8 69-31 10-55-13-86-5-30 8-45 36-84 9z"
    fill="none" stroke="#f2f5ef" stroke-width="6" stroke-linecap="round" stroke-linejoin="round"/>
  <path d="M62 118c-24-22-12-55 26-58 31-2 45 18 72 13 31-6 47-40 80-28 31 12 24 58-8 69-31 10-55-13-86-5-30 8-45 36-84 9z"
    fill="none" stroke="#96ff2f" stroke-width="2" stroke-linecap="round" stroke-linejoin="round"/>
</svg>