<svg xmlns="http://www.w3.org/2000/svg" viewBox="0 0 128 128">

<defs>
  <filter id="g" x="-40%" y="-40%" width="180%" height="180%">
    <feGaussianBlur stdDeviation="3.4" result="b"/>
    <feColorMatrix in="b" type="matrix"
      values="1 0 0 0 0
              0 1 0 0 0.8
              0 0 1 0 0.1
              0 0 0 1 0"/>
  </filter>
  <linearGradient id="bg" x1="0" y1="0" x2="1" y2="1">
    <stop offset="0" stop-color="#0a110c"/>
    <stop offset="1" stop-color="#060906"/>
  </linearGradient>
</defs>
<rect width="128" height="128" rx="22" fill="url(#bg)"/>
<rect x="6" y="6" width="116" height="116" rx="18" fill="none" stroke="#89ff24" stroke-opacity=".12"/>

<g fill="none" stroke="#96ff2f" stroke-width="5" stroke-linecap="round" stroke-linejoin="round">
  <path d="M42 46h44v34H42z" filter="url(#g)" opacity=".42"/>
</g>
<g fill="none" stroke="#96ff2f" stroke-width="4.4" stroke-linecap="round" stroke-linejoin="round">
  <rect x="40" y="44" width="48" height="38" rx="8"/>
  <path d="M52 36l-6-8M76 36l6-8"/>
  <path d="M40 54h-6v18h6M88 54h6v18h-6"/>
  <path d="M54 82v12M74 82v12"/>
  <circle cx="56" cy="57" r="1.7" fill="#96ff2f" stroke="none"/>
  <circle cx="72" cy="57" r="1.7" fill="#96ff2f" stroke="none"/>
  <path d="M52 68c4 3 20 3 24 0"/>
</g>
</svg>