<svg xmlns="http://www.w3.org/2000/svg" viewBox="0 0 64 64" fill="none">
<path d="M18 27l4-8h20l4 8" stroke="#9BFF39" stroke-width="3.2" stroke-linecap="round" stroke-linejoin="round"/>
<path d="M15 31h34a4 4 0 0 1 4 4v10a4 4 0 0 1-4 4h-4v-4H19v4h-4a4 4 0 0 1-4-4V35a4 4 0 0 1 4-4Z" stroke="#9BFF39" stroke-width="3.2" stroke-linejoin="round"/>
<circle cx="22" cy="41" r="3" fill="#9BFF39"/><circle cx="42" cy="41" r="3" fill="#9BFF39"/>
<path d="M32 8v13m0 0-5-5m5 5 5-5" stroke="#71E827" stroke-width="3" stroke-linecap="round" stroke-linejoin="round"/>
</svg>