<svg xmlns="http://www.w3.org/2000/svg" viewBox="0 0 64 64" fill="none">
<path d="M22 14h20v8c0 7-4 13-10 16-6-3-10-9-10-16v-8Z" stroke="#9BFF39" stroke-width="3.2" stroke-linejoin="round"/>
<path d="M22 18H16c0 7 3 11 10 12M42 18h6c0 7-3 11-10 12" stroke="#9BFF39" stroke-width="3.2" stroke-linecap="round" stroke-linejoin="round"/>
<path d="M32 38v7M25 52h14" stroke="#71E827" stroke-width="3.2" stroke-linecap="round"/>
<path d="M24 45h16l3 7H21l3-7Z" stroke="#9BFF39" stroke-width="3.2" stroke-linejoin="round"/>
<path d="M32 21l1.9 4 4.4.6-3.2 3 .8 4.4-3.9-2.1-3.9 2.1.8-4.4-3.2-3 4.4-.6L32 21Z" fill="#9BFF39"/>
</svg>