<svg xmlns="http://www.w3.org/2000/svg" viewBox="0 0 128 128" width="128" height="128" role="img" aria-label="Track">
  <rect width="128" height="128" rx="16" fill="#080d0a"/>
  <rect x="8" y="8" width="112" height="112" rx="12" fill="none" stroke="#96ff2f" stroke-opacity=".16"/>
  <g fill="none" stroke="#96ff2f" stroke-width="6" stroke-linecap="round" stroke-linejoin="round">
    <path d="M82 28c18 6 24 27 9 40-10 9-28 2-34 13-5 9 5 18 17 15 17-4 25 11 12 20-15 10-50 4-56-18-4-16 9-28 25-27 13 1 21-4 20-15-1-12-17-14-25-8-11 8-24 0-18-12 8-16 32-16 50-8z"/>
  </g>
</svg>
