<svg width="64" height="64" viewBox="0 0 64 64" fill="none" xmlns="http://www.w3.org/2000/svg">
  <g stroke="#9BFF34" stroke-width="2.6" stroke-linecap="round" stroke-linejoin="round">
    <path d="M18 17c7 0 9 6 14 6 6 0 8-10 16-10 4.5 0 7 3.2 7 7 0 4.1-2.5 6.3-6.2 8.4l-6.4 3.6c-3.4 1.9-5.4 3.6-5.4 6.9 0 3.5 2.8 5.4 6.7 5.4H52"/>
    <path d="M18 17c-4.2 0-7 2.8-7 6.5 0 3.7 2.8 6.5 7 6.5 3.2 0 5.4-1.4 9.5-4.5"/>
    <circle cx="18" cy="17" r="2.2" fill="#9BFF34" stroke="none"/>
    <circle cx="52" cy="44" r="2.2" fill="#9BFF34" stroke="none"/>
  </g>
</svg>
