<svg xmlns="http://www.w3.org/2000/svg" viewBox="0 0 128 128">

<defs>
  <filter id="g" x="-40%" y="-40%" width="180%" height="180%">
    <feGaussianBlur stdDeviation="3.4" result="b"/>
    <feColorMatrix in="b" type="matrix"
      values="1 0 0 0 0
              0 1 0 0 0.8
              0 0 1 0 0.1
              0 0 0 1 0"/>
  </filter>
  <linearGradient id="bg" x1="0" y1="0" x2="1" y2="1">
    <stop offset="0" stop-color="#0a110c"/>
    <stop offset="1" stop-color="#060906"/>
  </linearGradient>
</defs>
<rect width="128" height="128" rx="22" fill="url(#bg)"/>
<rect x="6" y="6" width="116" height="116" rx="18" fill="none" stroke="#89ff24" stroke-opacity=".12"/>

<g fill="none" stroke="#96ff2f" stroke-width="5.2" stroke-linecap="round" stroke-linejoin="round">
  <path d="M79 28c18 5 25 22 18 33-10 15-31 5-42 14-9 7-4 19 8 21 16 3 24-3 29 5" filter="url(#g)" opacity=".42"/>
</g>
<g fill="none" stroke="#96ff2f" stroke-width="4.4" stroke-linecap="round" stroke-linejoin="round">
  <path d="M77 26c18 5 26 20 22 33-5 15-24 18-37 17-10-1-20 3-22 10-2 7 5 13 14 14 13 1 27-2 33 4"/>
  <path d="M77 26c-14-4-33-2-42 10-10 13-4 29 9 29 8 0 11-4 11-10 0-7-7-11-15-9"/>
</g>
</svg>