<svg xmlns="http://www.w3.org/2000/svg" width="1200" height="630" viewBox="0 0 1200 630" role="img" aria-label="GrassCutters Racing">
  <defs>
    <linearGradient id="bg" x1="0" x2="1" y1="0" y2="1">
      <stop offset="0" stop-color="#101511"/>
      <stop offset="0.55" stop-color="#070a08"/>
      <stop offset="1" stop-color="#121a12"/>
    </linearGradient>
    <radialGradient id="glow" cx="18%" cy="12%" r="70%">
      <stop offset="0" stop-color="#9bf542" stop-opacity="0.42"/>
      <stop offset="1" stop-color="#9bf542" stop-opacity="0"/>
    </radialGradient>
  </defs>
  <rect width="1200" height="630" fill="url(#bg)"/>
  <rect width="1200" height="630" fill="url(#glow)"/>
  <path d="M0 482 C210 390 343 535 558 452 C760 374 861 402 1200 313 L1200 630 L0 630 Z" fill="#9bf542" opacity="0.09"/>
  <g opacity="0.14" stroke="#f3f7ef" stroke-width="1">
    <path d="M0 105H1200M0 210H1200M0 315H1200M0 420H1200M0 525H1200"/>
    <path d="M120 0V630M240 0V630M360 0V630M480 0V630M600 0V630M720 0V630M840 0V630M960 0V630M1080 0V630"/>
  </g>
  <rect x="72" y="72" width="108" height="108" rx="30" fill="#9bf542"/>
  <text x="126" y="140" text-anchor="middle" font-family="Inter, Arial, sans-serif" font-size="42" font-weight="900" fill="#101410">GC</text>
  <text x="72" y="265" font-family="Inter, Arial, sans-serif" font-size="80" font-weight="900" letter-spacing="-5" fill="#f3f7ef">GrassCutters</text>
  <text x="72" y="342" font-family="Inter, Arial, sans-serif" font-size="64" font-weight="900" letter-spacing="-4" fill="#9bf542">Racing</text>
  <text x="76" y="414" font-family="Inter, Arial, sans-serif" font-size="28" font-weight="700" fill="#c9d3c4">Comunidad sim racing · hotlaps reales · plataforma para pilotos</text>
  <g transform="translate(74 486)" font-family="Inter, Arial, sans-serif" font-size="22" font-weight="800" fill="#f3f7ef">
    <rect x="0" y="0" width="176" height="52" rx="26" fill="#ffffff" opacity="0.09"/>
    <text x="28" y="34">Discord</text>
    <rect x="196" y="0" width="178" height="52" rx="26" fill="#ffffff" opacity="0.09"/>
    <text x="224" y="34">Hotlaps</text>
    <rect x="394" y="0" width="172" height="52" rx="26" fill="#ffffff" opacity="0.09"/>
    <text x="422" y="34">Combos</text>
  </g>
</svg>
